<svg xmlns="http://www.w3.org/2000/svg" xmlns:xlink="http://www.w3.org/1999/xlink" viewBox="0 0 230.77 62.19"><defs><style>.cls-1{fill:#fff;}.cls-2,.cls-3{fill-rule:evenodd;}.cls-2{fill:url(#linear-gradient);}.cls-3{fill:url(#linear-gradient-2);}</style><linearGradient id="linear-gradient" x1="1813.84" y1="31.57" x2="1866.9" y2="31.57" gradientTransform="matrix(-1, 0, 0, 1, 1962.59, 0)" gradientUnits="userSpaceOnUse"><stop offset="0" stop-color="#c17725"/><stop offset="0.02" stop-color="#cc8026"/><stop offset="0.09" stop-color="#ea9a2a"/><stop offset="0.13" stop-color="#f5a42c"/><stop offset="0.62" stop-color="#f5a42c"/><stop offset="0.8" stop-color="#ffca52"/><stop offset="1" stop-color="#ffca52"/></linearGradient><linearGradient id="linear-gradient-2" x1="1827.06" y1="-8.35" x2="1839.09" y2="48.06" xlink:href="#linear-gradient"/></defs><g id="Layer_2" data-name="Layer 2"><g id="Layer_1-2" data-name="Layer 1"><path class="cls-1" d="M0,45.25V20H4.27V41.2H15.81v4Z"/><path class="cls-1" d="M35.67,42.66a9.84,9.84,0,0,1-7.24,2.88,9.84,9.84,0,0,1-7.23-2.88,9.52,9.52,0,0,1-2.9-7,9.56,9.56,0,0,1,2.9-7,9.87,9.87,0,0,1,7.23-2.87,9.88,9.88,0,0,1,7.24,2.87,9.55,9.55,0,0,1,2.89,7A9.51,9.51,0,0,1,35.67,42.66Zm-11.6-2.49a5.85,5.85,0,0,0,4.36,1.75,5.85,5.85,0,0,0,4.36-1.75,6.19,6.19,0,0,0,1.72-4.54,6.19,6.19,0,0,0-1.72-4.54,5.85,5.85,0,0,0-4.36-1.75,5.85,5.85,0,0,0-4.36,1.75,6.23,6.23,0,0,0-1.72,4.54A6.23,6.23,0,0,0,24.07,40.17Z"/><path class="cls-1" d="M51.69,45.54a9.72,9.72,0,0,1-6.91-2.73,9.36,9.36,0,0,1-2.89-7.14,9.25,9.25,0,0,1,3-7.18,10.48,10.48,0,0,1,7.36-2.77,10,10,0,0,1,7.34,3l-2.39,2.93a7.66,7.66,0,0,0-5-2.17,6.35,6.35,0,0,0-4.4,1.68,5.58,5.58,0,0,0-1.86,4.34,6.28,6.28,0,0,0,6.38,6.35,7.08,7.08,0,0,0,5.09-2.46L59.79,42A11.08,11.08,0,0,1,51.69,45.54Z"/><path class="cls-1" d="M79.43,45.25H75.74V42.68a7.89,7.89,0,0,1-6.4,2.86,7.35,7.35,0,0,1-5-1.7,5.67,5.67,0,0,1-2-4.54,4.78,4.78,0,0,1,2.1-4.25,10,10,0,0,1,5.67-1.41h5.25v-.72q0-3.84-4.27-3.84a10,10,0,0,0-5.57,2L63.77,28.5a12.49,12.49,0,0,1,8-2.78,8.58,8.58,0,0,1,5.55,1.72c1.44,1.14,2.15,2.94,2.15,5.4Zm-4.05-7.16V36.46H70.83q-4.38,0-4.38,2.75a2.44,2.44,0,0,0,1.08,2.15,5.27,5.27,0,0,0,3,.74A5.53,5.53,0,0,0,73.94,41,3.47,3.47,0,0,0,75.38,38.09Z"/><path class="cls-1" d="M89.13,45.25h-4V18.41h4Z"/><path class="cls-1" d="M159.3,24v6.94h11.21v3.94H159.3V45.25H155V20h16.86l0,4Z"/><path class="cls-1" d="M176.55,22.17a2.56,2.56,0,1,1,3.62-3.61,2.56,2.56,0,1,1-3.62,3.61Zm3.8,23.08h-4V26h4Z"/><path class="cls-1" d="M196.3,29.81a5.37,5.37,0,0,0-4.52,2A8.33,8.33,0,0,0,190.26,37v8.25h-4V26h4v3.87a8.35,8.35,0,0,1,2.66-3,6.38,6.38,0,0,1,3.56-1.19l0,4.09Z"/><path class="cls-1" d="M214.28,39.5a5.39,5.39,0,0,1-2,4.39,7.74,7.74,0,0,1-5.1,1.65,13.58,13.58,0,0,1-4.36-.76,13.32,13.32,0,0,1-4-2.13l2-3.15A10.89,10.89,0,0,0,207.3,42a3.4,3.4,0,0,0,2.17-.63,2,2,0,0,0,.8-1.61c0-1-1.28-1.83-3.84-2.61L206,37c-4-1.09-6-2.89-6-5.43a5.16,5.16,0,0,1,2.08-4.28,8.62,8.62,0,0,1,5.41-1.61,11.23,11.23,0,0,1,6.29,2l-1.52,3a9.08,9.08,0,0,0-5.1-1.55,4.67,4.67,0,0,0-2.35.52,1.72,1.72,0,0,0-.9,1.58,1.43,1.43,0,0,0,.94,1.37,9.13,9.13,0,0,0,1.83.62c.78.19,1.47.38,2.08.57s1.18.41,1.75.66a10.66,10.66,0,0,1,1.83,1A4.53,4.53,0,0,1,214.28,39.5Z"/><path class="cls-1" d="M223.87,29.26V39a3.18,3.18,0,0,0,.72,2.19,2.57,2.57,0,0,0,2,.81,3.45,3.45,0,0,0,2.5-1.26l1.66,2.85a6.88,6.88,0,0,1-4.72,1.92,6.09,6.09,0,0,1-4.41-1.79,6.44,6.44,0,0,1-1.83-4.83V29.26h-2.42V26h2.42V20h4.06v6h5.06v3.25Z"/><path class="cls-2" d="M102.11,10.12a26.66,26.66,0,0,0,1.32,36.15l13.91,13.9a6.91,6.91,0,0,0,9.76,0L141,46.27a26.55,26.55,0,0,0,7.55-22c-1-7.84-10.33-7.53-9.12.7a17.4,17.4,0,1,1-14.17-14.58c7,1.24,8.7-8.08.52-9.16a26.6,26.6,0,0,0-23.67,8.93"/><path class="cls-3" d="M138.77,1.92a6.55,6.55,0,1,1,4,11.15,8.63,8.63,0,0,0-9.17,11,11.83,11.83,0,1,1-7.94-8,8.84,8.84,0,0,0,11.25-9.09,6.52,6.52,0,0,1,1.9-5.14"/></g></g></svg>