<svg xmlns="http://www.w3.org/2000/svg" xmlns:xlink="http://www.w3.org/1999/xlink" viewBox="0 0 220.19 63.05"><defs><style>.cls-1,.cls-2{stroke:#f1f2f2;stroke-miterlimit:10;stroke-width:3.72px;}.cls-1,.cls-2,.cls-3,.cls-4{fill-rule:evenodd;}.cls-1{fill:url(#linear-gradient);}.cls-2{fill:url(#linear-gradient-2);}.cls-3{fill:url(#linear-gradient-3);}.cls-4{fill:url(#linear-gradient-4);}</style><linearGradient id="linear-gradient" x1="1825.97" y1="31.98" x2="1876.6" y2="31.98" gradientTransform="matrix(-1, 0, 0, 1, 1967.89, 0)" gradientUnits="userSpaceOnUse"><stop offset="0" stop-color="#c17725"/><stop offset="0.02" stop-color="#cc8026"/><stop offset="0.09" stop-color="#ea9a2a"/><stop offset="0.13" stop-color="#f5a42c"/><stop offset="0.62" stop-color="#f5a42c"/><stop offset="0.8" stop-color="#ffca52"/><stop offset="1" stop-color="#ffca52"/></linearGradient><linearGradient id="linear-gradient-2" x1="1838.59" y1="-6.11" x2="1850.07" y2="47.72" xlink:href="#linear-gradient"/><linearGradient id="linear-gradient-3" x1="1825.75" y1="32.08" x2="1876.38" y2="32.08" xlink:href="#linear-gradient"/><linearGradient id="linear-gradient-4" x1="1838.37" y1="-6.01" x2="1849.85" y2="47.82" xlink:href="#linear-gradient"/></defs><g id="Layer_2" data-name="Layer 2"><g id="Layer_1-2" data-name="Layer 1"><path d="M0,45V20.91H4.07V41.17h11V45Z"/><path d="M34,42.57a9.38,9.38,0,0,1-6.9,2.74,9.38,9.38,0,0,1-6.9-2.74,9.08,9.08,0,0,1-2.77-6.72,9.08,9.08,0,0,1,2.77-6.71,9.38,9.38,0,0,1,6.9-2.74A9.38,9.38,0,0,1,34,29.14a9.11,9.11,0,0,1,2.76,6.71A9.11,9.11,0,0,1,34,42.57ZM23,40.18a5.56,5.56,0,0,0,4.16,1.68,5.58,5.58,0,0,0,4.16-1.68,5.91,5.91,0,0,0,1.64-4.33,6,6,0,0,0-1.64-4.33,5.61,5.61,0,0,0-4.16-1.67A5.59,5.59,0,0,0,23,31.52a6,6,0,0,0-1.64,4.33A5.91,5.91,0,0,0,23,40.18Z"/><path d="M49.32,45.31a9.26,9.26,0,0,1-6.59-2.61A8.91,8.91,0,0,1,40,35.89,8.86,8.86,0,0,1,42.85,29a10,10,0,0,1,7-2.64,9.54,9.54,0,0,1,7,2.86l-2.28,2.8A7.34,7.34,0,0,0,49.8,30a6,6,0,0,0-4.19,1.6,5.31,5.31,0,0,0-1.78,4.14,6,6,0,0,0,6.09,6.06,6.71,6.71,0,0,0,4.85-2.35l2.28,2.49A10.58,10.58,0,0,1,49.32,45.31Z"/><path d="M75.79,45H72.27V42.58a7.54,7.54,0,0,1-6.11,2.73,7,7,0,0,1-4.74-1.62,5.42,5.42,0,0,1-1.88-4.33,4.55,4.55,0,0,1,2-4.06A9.56,9.56,0,0,1,67,34h5v-.69q0-3.64-4.07-3.65a9.56,9.56,0,0,0-5.32,1.86l-1.72-2.42a11.88,11.88,0,0,1,7.59-2.65A8.2,8.2,0,0,1,73.74,28q2.06,1.63,2.05,5.16ZM71.93,38.2V36.65H67.58q-4.18,0-4.18,2.62a2.33,2.33,0,0,0,1,2,5,5,0,0,0,2.88.71,5.21,5.21,0,0,0,3.22-1A3.33,3.33,0,0,0,71.93,38.2Z"/><path d="M85,45H81.17V19.42H85Z"/><path d="M152,24.71v6.62h10.7v3.76H152V45h-4.07V20.91H164l0,3.8Z"/><path d="M168.46,23a2.31,2.31,0,0,1-.73-1.72,2.48,2.48,0,0,1,2.45-2.45,2.46,2.46,0,0,1,2.45,2.45,2.48,2.48,0,0,1-2.45,2.45A2.31,2.31,0,0,1,168.46,23Zm3.62,22h-3.87V26.67h3.87Z"/><path d="M187.3,30.3A5.12,5.12,0,0,0,183,32.16a7.91,7.91,0,0,0-1.45,5V45h-3.87V26.67h3.87v3.7a7.92,7.92,0,0,1,2.53-2.83,6.08,6.08,0,0,1,3.4-1.14l0,3.9Z"/><path d="M204.45,39.55a5.16,5.16,0,0,1-1.9,4.19,7.33,7.33,0,0,1-4.86,1.57,13.1,13.1,0,0,1-4.16-.72,12.83,12.83,0,0,1-3.82-2l1.87-3A10.41,10.41,0,0,0,197.79,42a3.25,3.25,0,0,0,2.07-.6,1.88,1.88,0,0,0,.76-1.54q0-1.38-3.66-2.48a3.33,3.33,0,0,0-.41-.14c-3.82-1-5.73-2.76-5.73-5.18a4.93,4.93,0,0,1,2-4.09A8.24,8.24,0,0,1,198,26.4a10.76,10.76,0,0,1,6,1.86l-1.45,2.86a8.74,8.74,0,0,0-4.87-1.48,4.45,4.45,0,0,0-2.24.5,1.62,1.62,0,0,0-.86,1.5,1.37,1.37,0,0,0,.89,1.31,8.39,8.39,0,0,0,1.75.59c.74.19,1.41.37,2,.55s1.13.39,1.68.62a11.17,11.17,0,0,1,1.74,1A4.33,4.33,0,0,1,204.45,39.55Z"/><path d="M213.6,29.78V39.1a3,3,0,0,0,.69,2.09,2.46,2.46,0,0,0,1.93.77,3.27,3.27,0,0,0,2.38-1.21l1.59,2.73a6.59,6.59,0,0,1-4.5,1.83,5.78,5.78,0,0,1-4.21-1.71A6.13,6.13,0,0,1,209.73,39V29.78h-2.31V26.67h2.31V20.91h3.87v5.76h4.83v3.11Z"/><path class="cls-1" d="M97.43,11.52A25.41,25.41,0,0,0,98.69,46L112,59.27a6.62,6.62,0,0,0,9.32,0L134.54,46a25.34,25.34,0,0,0,7.2-21c-.91-7.48-9.86-7.19-8.7.66a16.61,16.61,0,1,1-13.53-13.91c6.68,1.18,8.3-7.7.5-8.74a25.34,25.34,0,0,0-22.58,8.53"/><path class="cls-2" d="M132.41,3.69a6.25,6.25,0,1,1,3.77,10.64,8.23,8.23,0,0,0-8.74,10.53,11.3,11.3,0,1,1-7.58-7.59,8.44,8.44,0,0,0,10.73-8.68,6.22,6.22,0,0,1,1.82-4.9"/><path class="cls-3" d="M97.65,11.62a25.43,25.43,0,0,0,1.26,34.49l13.26,13.26a6.6,6.6,0,0,0,9.32,0l13.26-13.26a25.34,25.34,0,0,0,7.21-21c-.91-7.48-9.86-7.18-8.71.67a16.6,16.6,0,1,1-13.52-13.91c6.68,1.18,8.3-7.71.5-8.75a25.39,25.39,0,0,0-22.58,8.53"/><path class="cls-4" d="M132.62,3.79a6.26,6.26,0,1,1,3.78,10.64A8.25,8.25,0,0,0,127.65,25a11.28,11.28,0,1,1-7.57-7.6,8.43,8.43,0,0,0,10.73-8.68,6.26,6.26,0,0,1,1.81-4.9"/></g></g></svg>